<!DOCTYPE svg PUBLIC "-//W3C//DTD SVG 1.1//EN" "http://www.w3.org/Graphics/SVG/1.1/DTD/svg11.dtd">
<!-- Uploaded to: SVG Repo, www.svgrepo.com, Transformed by: SVG Repo Mixer Tools -->
<svg height="800px" width="800px" version="1.1" id="Layer_1" xmlns="http://www.w3.org/2000/svg" xmlns:xlink="http://www.w3.org/1999/xlink" viewBox="0 0 512 512" xml:space="preserve" fill="#000000">
<g id="SVGRepo_bgCarrier" stroke-width="0"/>
<g id="SVGRepo_tracerCarrier" stroke-linecap="round" stroke-linejoin="round"/>
<g id="SVGRepo_iconCarrier"> <path style="fill:#00d8ff;" d="M488.727,232.727h-55.822c-4.163-31.815-16.742-61.016-35.421-85.299l39.534-39.534 c9.089-9.087,9.089-23.824,0-32.912c-9.087-9.089-23.824-9.089-32.912,0l-39.534,39.534c-24.281-18.677-53.482-31.26-85.299-35.423 v-55.82C279.273,10.42,268.853,0,256,0c-12.853,0-23.273,10.42-23.273,23.273v55.82c-31.817,4.163-61.018,16.745-85.301,35.423 l-39.534-39.534c-9.087-9.089-23.824-9.089-32.912,0s-9.089,23.825,0,32.912l39.534,39.534 c-18.677,24.283-31.258,53.484-35.42,85.299H23.273C10.42,232.727,0,243.147,0,256c0,12.853,10.42,23.273,23.273,23.273h55.822 c4.163,31.815,16.744,61.016,35.421,85.299L74.98,404.108c-9.089,9.089-9.089,23.824,0,32.912 c4.544,4.544,10.501,6.816,16.455,6.816s11.913-2.271,16.455-6.816l39.534-39.536c24.283,18.677,53.485,31.258,85.301,35.423v55.82 c0,12.853,10.42,23.273,23.273,23.273c12.853,0,23.273-10.42,23.273-23.273v-55.82c31.815-4.163,61.016-16.744,85.301-35.423 l39.534,39.536c4.544,4.544,10.501,6.816,16.455,6.816c5.955,0,11.913-2.271,16.455-6.816c9.089-9.089,9.089-23.824,0-32.912 l-39.534-39.536c18.677-24.283,31.258-53.484,35.421-85.299h55.824C501.58,279.273,512,268.853,512,256 C512,243.147,501.58,232.727,488.727,232.727z M147.81,180.722l33.708,33.707c-3.209,5.727-5.769,11.858-7.598,18.299h-47.7 C129.629,213.667,137.134,196.018,147.81,180.722z M126.22,279.273h47.698c1.831,6.44,4.389,12.572,7.598,18.299l-33.708,33.707 C137.134,315.982,129.629,298.333,126.22,279.273z M232.727,385.78c-19.06-3.409-36.709-10.915-52.007-21.591l33.708-33.707 c5.725,3.209,11.86,5.769,18.299,7.598V385.78z M232.727,173.919c-6.439,1.829-12.573,4.389-18.299,7.598L180.72,147.81 c15.296-10.676,32.945-18.181,52.007-21.591V173.919z M279.273,126.219c19.06,3.409,36.709,10.915,52.007,21.591l-33.708,33.707 c-5.725-3.209-11.86-5.769-18.299-7.598V126.219z M279.273,385.78v-47.7c6.439-1.829,12.573-4.389,18.299-7.598l33.708,33.707 C315.982,374.866,298.333,382.371,279.273,385.78z M364.19,331.278l-33.708-33.707c3.209-5.727,5.769-11.858,7.598-18.299h47.698 C382.371,298.333,374.866,315.982,364.19,331.278z M338.081,232.727c-1.831-6.44-4.389-12.572-7.598-18.299l33.708-33.707 c10.676,15.296,18.181,32.945,21.589,52.005H338.081z"/> <path style="fill:#53C1DE;" d="M23.273,279.273h55.822c4.163,31.815,16.744,61.016,35.421,85.301L74.98,404.108 c-9.089,9.089-9.089,23.824,0,32.912c4.544,4.544,10.501,6.816,16.457,6.816s11.913-2.271,16.455-6.816l39.534-39.536 c24.283,18.677,53.485,31.258,85.301,35.423v55.82C232.727,501.58,243.147,512,256,512V0c-12.853,0-23.273,10.42-23.273,23.273 v55.82c-31.817,4.163-61.018,16.744-85.301,35.423l-39.534-39.534c-9.087-9.089-23.824-9.089-32.912,0s-9.089,23.825,0,32.912 l39.536,39.534c-18.679,24.283-31.26,53.484-35.421,85.299H23.273C10.42,232.727,0,243.147,0,256 C0,268.853,10.42,279.273,23.273,279.273z M232.727,385.781c-19.06-3.409-36.709-10.915-52.007-21.591l33.708-33.707 c5.725,3.209,11.858,5.769,18.299,7.598V385.781z M232.727,126.22v47.7c-6.439,1.829-12.573,4.389-18.299,7.598L180.72,147.81 C196.018,137.134,213.667,129.629,232.727,126.22z M147.81,180.722l33.708,33.707c-3.209,5.727-5.769,11.858-7.598,18.299h-47.7 C129.629,213.667,137.134,196.018,147.81,180.722z M173.919,279.273c1.831,6.44,4.389,12.572,7.598,18.299l-33.708,33.707 c-10.674-15.296-18.179-32.945-21.588-52.005H173.919z"/> </g>
</svg>