<!DOCTYPE svg PUBLIC "-//W3C//DTD SVG 1.1//EN" "http://www.w3.org/Graphics/SVG/1.1/DTD/svg11.dtd">
<!-- Uploaded to: SVG Repo, www.svgrepo.com, Transformed by: SVG Repo Mixer Tools -->
<svg width="800px" height="800px" viewBox="0 0 48 48" fill="none" xmlns="http://www.w3.org/2000/svg">
<g id="SVGRepo_bgCarrier" stroke-width="0"/>
<g id="SVGRepo_tracerCarrier" stroke-linecap="round" stroke-linejoin="round"/>
<g id="SVGRepo_iconCarrier"> <g id="paperplane"> <g id="paperplane_2"> <path id="Combined Shape" fill-rule="evenodd" clip-rule="evenodd" d="M26.8843 42.1715L21.9423 30.6455C21.7247 30.1379 21.9597 29.55 22.4673 29.3323C22.9749 29.1147 23.5628 29.3498 23.7805 29.8573L28.7228 41.384C29.0908 42.2441 30.3272 42.1928 30.6227 41.3051L41.9447 7.34519C42.2101 6.54895 41.4519 5.79069 40.6556 6.05612L6.69795 17.374C5.80783 17.671 5.75653 18.9085 6.61925 19.2782L21.0984 25.4822L37.7432 8.84319C38.1338 8.45274 38.767 8.45285 39.1574 8.84344C39.5479 9.23403 39.5478 9.8672 39.1572 10.2577L22.0332 27.3757C21.725 27.6837 21.2659 27.7486 20.8941 27.5705L5.83148 21.1166C3.27863 20.0225 3.43062 16.3559 6.06521 15.4767L40.0232 4.15874C42.3829 3.37215 44.6287 5.61789 43.8421 7.9777L32.5202 41.9373C31.6435 44.5703 27.9759 44.7225 26.8843 42.1715Z" fill="#ffffff"/> </g> </g> </g>
</svg>