<!DOCTYPE svg PUBLIC "-//W3C//DTD SVG 1.1//EN" "http://www.w3.org/Graphics/SVG/1.1/DTD/svg11.dtd">
<!-- Uploaded to: SVG Repo, www.svgrepo.com, Transformed by: SVG Repo Mixer Tools -->
<svg fill="#000000" height="800px" width="800px" version="1.1" id="Layer_1" xmlns="http://www.w3.org/2000/svg" xmlns:xlink="http://www.w3.org/1999/xlink" viewBox="0 0 486.54 486.54" xml:space="preserve">
<g id="SVGRepo_bgCarrier" stroke-width="0"/>
<g id="SVGRepo_tracerCarrier" stroke-linecap="round" stroke-linejoin="round"/>
<g id="SVGRepo_iconCarrier"> <g> <g> <path d="M365.697,0l-13.923,13.923l67.76,67.76H132.139c-54.452,0-98.75,44.298-98.75,98.745v61.389h19.692v-61.389 c0-43.591,35.466-79.053,79.058-79.053h287.394l-67.76,67.76l13.923,13.923l91.529-91.529L365.697,0z"/> </g> </g> <g> <g> <path d="M433.457,244.716v61.389c0,43.591-35.466,79.058-79.058,79.058H67.004l67.76-67.764l-13.923-13.923L29.313,395.01 l91.529,91.529l13.923-13.923l-67.76-67.76h287.394c54.452,0,98.75-44.298,98.75-98.75v-61.389H433.457z"/> </g> </g> </g>
</svg>